HIERARCHY
ROOT Hips
{
	OFFSET 0.000000 0.000000 0.000000 
	CHANNELS 6 Xposition Yposition Zposition Yrotation Zrotation Xrotation 
	JOINT Lumbar
	{
		OFFSET 0.000000 0.000000 0.000000 
		CHANNELS 3 Zrotation Xrotation Yrotation
		JOINT Neck
		{
			OFFSET 0.000000 0.445665 0.000000 
			CHANNELS 3 Zrotation Xrotation Yrotation
			End Site
			{
				OFFSET 0.000000 0.227535 0.000000 
			}
		}
		JOINT RightShoulder
		{
			OFFSET 0.019635 0.377685 0.194865 
			CHANNELS 3 Zrotation Xrotation Yrotation
			JOINT RightElbow
			{
				OFFSET 0.000000 -0.243375 0.000000 
				CHANNELS 2 Zrotation Yrotation
				JOINT RightWrist
				{
					OFFSET 0.000000 -0.264825 0.000000 
					CHANNELS 2 Zrotation Xrotation
					End Site
					{
						OFFSET 0.006600 -0.176220 0.000990 
					}
				}
			}
		}
		JOINT LeftShoulder
		{
			OFFSET 0.019635 0.377685 -0.194865 
			CHANNELS 3 Zrotation Xrotation Yrotation
			JOINT LeftElbow
			{
				OFFSET 0.000000 -0.243375 0.000000 
				CHANNELS 2 Zrotation Yrotation
				JOINT LeftWrist
				{
					OFFSET 0.000000 -0.264825 0.000000 
					CHANNELS 2 Zrotation Xrotation
					End Site
					{
						OFFSET 0.006600 -0.176220 -0.000990 
					}
				}
			}
		}
	}
	JOINT RightHip
	{
		OFFSET 0.052140 -0.069960 0.075570 
		CHANNELS 3 Zrotation Xrotation Yrotation
		JOINT RightKnee
		{
			OFFSET 0.000000 -0.402270 0.000000 
			CHANNELS 1 Zrotation
			JOINT RightAnkle
			{
				OFFSET 0.000000 -0.404085 0.000000 
				CHANNELS 3 Zrotation Xrotation Yrotation
				End Site
				{
					OFFSET 0.204105 -0.089430 0.008415 
				}
			}
		}
	}
	JOINT LeftHip
	{
		OFFSET 0.052140 -0.069960 -0.075570 
		CHANNELS 3 Zrotation Xrotation Yrotation
		JOINT LeftKnee
		{
			OFFSET 0.000000 -0.402270 0.000000 
			CHANNELS 1 Zrotation
			JOINT LeftAnkle
			{
				OFFSET 0.000000 -0.404085 0.000000 
				CHANNELS 3 Zrotation Xrotation Yrotation
				End Site
				{
					OFFSET 0.204105 -0.089430 -0.008415 
				}
			}
		}
	}
}
MOTION
Frames: 23
Frame Time: 0.02
0 0.95578 -0 178.03 0 -4.9118 6.4703 5.07204 -5.62841 -20.3797 7.79763 4.23283 16.49166 -22.57046 17.70009 11.63964 82.8074 -1.71907 -4.36427 17.68215 3.59536 -19.03934 10.06219 -81.87798 -3.62852 3.78303 -4.58466 7.37464 -3.66613 -6.85196 -11.63061 -1.66783 -7.63952 -6.73024 5.38331 17.22518 -0.57869 -6.9288 2.02903 5.43149
-1e-05 0.95578 2e-05 178.00069 0 -4.91018 6.47062 5.07233 -5.51674 -20.52808 7.70819 4.23586 16.51204 -22.45785 17.96791 11.5883 82.80412 -1.69275 -4.33208 17.83595 3.65163 -18.63129 10.05927 -81.88276 -3.63858 3.78271 -4.58318 7.37192 -3.64867 -6.84925 -11.62932 -1.67273 -7.65311 -6.72022 5.38106 17.60553 -0.61535 -6.7671 2.00017 5.13644
-2e-05 0.95577 5e-05 177.97127 0 -4.9086 6.4708 5.07268 -5.4055 -20.67547 7.61897 4.23876 16.53237 -22.34557 18.23244 11.53659 82.80058 -1.66643 -4.29966 17.98839 3.70785 -18.22454 10.05566 -81.88745 -3.6484 3.78194 -4.58155 7.36919 -3.63094 -6.84684 -11.62803 -1.67759 -7.66658 -6.71024 5.37879 17.98198 -0.6519 -6.60667 1.97177 4.84501
-2e-05 0.95576 7e-05 177.94119 0 -4.90712 6.47061 5.07335 -5.29482 -20.82074 7.52935 4.24114 16.55295 -22.23284 18.48606 11.48249 82.7955 -1.63968 -4.2657 18.13776 3.76474 -17.81984 10.0495 -81.89208 -3.65753 3.77945 -4.57927 7.36631 -3.61173 -6.84577 -11.62627 -1.68239 -7.67982 -6.70025 5.37645 18.34569 -0.68862 -6.44858 1.9452 4.56606
-3e-05 0.95576 9e-05 177.91468 0 -4.90503 6.47259 5.07239 -5.18108 -20.97774 7.44133 4.24628 16.5725 -22.1217 18.79702 11.44056 82.79804 -1.61502 -4.23956 18.30443 3.81846 -17.40529 10.05715 -81.89732 -3.67051 3.78612 -4.58039 7.36414 -3.6001 -6.83782 -11.62642 -1.68762 -7.69437 -6.69026 5.37447 18.77585 -0.72476 -6.27667 1.9093 4.22207
-4e-05 0.95575 0.00012 177.8806 0 -4.9043 6.46984 5.07483 -5.07398 -21.10943 7.35038 4.24559 16.59402 -22.00785 18.98672 11.37328 82.78482 -1.58607 -4.19715 18.43364 3.87856 -17.01132 10.03538 -81.90108 -3.67522 3.77338 -4.57431 7.36052 -3.57263 -6.84426 -11.62293 -1.69186 -7.70606 -6.68034 5.37176 19.06577 -0.76189 -6.13513 1.89295 4.01522
-5e-05 0.95575 0.0002 177.82431 0 -4.90698 6.45441 5.08744 -4.98272 -21.17503 7.2456 4.2281 16.62344 -21.87855 18.8317 11.22866 82.72305 -1.54301 -4.10492 18.4651 3.96083 -16.67095 9.93056 -81.90229 -3.65738 3.70509 -4.54736 7.35216 -3.49755 -6.89331 -11.60568 -1.69382 -7.7105 -6.66982 5.36671 18.95614 -0.80455 -6.06855 1.93376 4.20149
-5e-05 0.95574 0.00029 177.76063 0 -4.91111 6.43398 5.10334 -4.8986 -21.21435 7.1389 4.20487 16.65443 -21.74792 18.55596 11.05971 82.64618 -1.49601 -3.99711 18.45769 4.04871 -16.35168 9.7963 -81.90178 -3.63115 3.6175 -4.51325 7.34246 -3.40707 -6.9564 -11.5855 -1.69469 -7.71198 -6.65947 5.36099 18.70727 -0.84769 -6.03423 1.99374 4.52351
-6e-05 0.95574 0.00038 177.70102 0 -4.91479 6.41569 5.11722 -4.81259 -21.26345 7.0366 4.18465 16.68315 -21.62282 18.34159 10.9064 82.57953 -1.4522 -3.89944 18.4644 4.13126 -16.02428 9.67649 -81.90096 -3.60854 3.53988 -4.48305 7.33378 -3.32609 -7.01124 -11.56899 -1.69581 -7.71433 -6.6496 5.35578 18.52966 -0.8889 -5.99082 2.04299 4.77462
-7e-05 0.95573 0.00047 177.63813 0 -4.91754 6.39846 5.13334 -4.72051 -21.32213 6.91907 4.16259 16.71845 -21.47664 18.09954 10.73349 82.499 -1.4024 -3.78866 18.48616 4.22587 -15.69032 9.55198 -81.90446 -3.58667 3.4571 -4.45022 7.32328 -3.23472 -7.07396 -11.54233 -1.69801 -7.71849 -6.63755 5.34966 18.3175 -0.93753 -5.92377 2.10092 5.06567
-7e-05 0.95574 0.00055 177.58067 0 -4.92262 6.37724 5.14555 -4.64322 -21.35405 6.83324 4.14321 16.7404 -21.37446 17.88676 10.59595 82.44345 -1.36427 -3.70174 18.46723 4.29628 -15.37561 9.43052 -81.89894 -3.56136 3.38062 -4.421 7.31635 -3.16113 -7.12358 -11.53646 -1.69763 -7.71843 -6.6299 5.34535 18.14528 -0.97059 -5.91377 2.14514 5.30446
-7e-05 0.95583 0.00061 177.53697 0 -4.93326 6.3508 5.14622 -4.60107 -21.32251 6.83206 4.13076 16.72485 -21.39074 17.78231 10.55929 82.46344 -1.35825 -3.68254 18.34593 4.302 -15.10396 9.32259 -81.86536 -3.52768 3.32536 -4.40483 7.31889 -3.14229 -7.13411 -11.5857 -1.69108 -7.70517 -6.63577 5.34549 18.10805 -0.96252 -6.05209 2.14846 5.37733
-5e-05 0.95594 0.00067 177.49956 0 -4.94626 6.31934 5.14281 -4.57429 -21.26368 6.86362 4.12155 16.69558 -21.45208 17.71209 10.5596 82.50859 -1.36431 -3.6883 18.18462 4.28243 -14.85209 9.21923 -81.82332 -3.49101 3.27736 -4.39219 7.32519 -3.14158 -7.13097 -11.65646 -1.68185 -7.68822 -6.64569 5.34757 18.11724 -0.93847 -6.24686 2.13708 5.39104
-3e-05 0.95605 0.00072 177.46128 0 -4.95856 6.28762 5.14124 -4.54303 -21.21539 6.88225 4.1121 16.67315 -21.49489 17.62724 10.54472 82.54028 -1.36557 -3.68386 18.04172 4.27223 -14.59407 9.11499 -81.78763 -3.45628 3.22655 -4.37722 7.3303 -3.13128 -7.1337 -11.71945 -1.67335 -7.67445 -6.65302 5.34925 18.11171 -0.92034 -6.41678 2.13129 5.42386
-8e-05 0.95614 0.00078 177.41434 0 -4.96948 6.2678 5.13992 -4.50141 -21.17621 6.89207 4.09729 16.6494 -21.52906 17.53333 10.52203 82.57985 -1.3638 -3.67385 17.89784 4.27152 -14.32381 9.00425 -81.74175 -3.41871 3.17272 -4.36554 7.33331 -3.12595 -7.13807 -11.77415 -1.66678 -7.65417 -6.66404 5.34899 18.07569 -0.90758 -6.58483 2.13054 5.49305
4e-05 0.95628 0.00084 177.387 0 -4.98365 6.22036 5.13696 -4.48499 -21.10923 6.92868 4.09442 16.62366 -21.59241 17.46919 10.5249 82.60938 -1.37122 -3.68182 17.74534 4.24455 -14.08471 8.90904 -81.71456 -3.38654 3.12754 -4.34733 7.34144 -3.11499 -7.13596 -11.85086 -1.6557 -7.64665 -6.66769 5.35312 18.1144 -0.88021 -6.76926 2.11585 5.47219
0.00059 0.95655 0.00089 177.41246 0 -5.0075 6.11211 5.13155 -4.53371 -20.99462 7.02605 4.12417 16.60786 -21.72133 17.46956 10.58792 82.60324 -1.40157 -3.73148 17.59277 4.15485 -13.9161 8.85135 -81.74581 -3.36932 3.10123 -4.31529 7.36399 -3.08239 -7.11635 -11.98657 -1.63154 -7.67493 -6.65512 5.36976 18.36283 -0.81352 -6.98936 2.0635 5.20334
0.00134 0.95688 0.00095 177.45742 0 -5.03429 5.97322 5.12442 -4.60737 -20.84848 7.15029 4.16567 16.5881 -21.87883 17.5014 10.67582 82.58655 -1.44072 -3.79882 17.43024 4.03889 -13.78 8.81013 -81.79538 -3.35782 3.08414 -4.27548 7.39131 -3.044 -7.09128 -12.14303 -1.60316 -7.71622 -6.63385 5.3906 18.68285 -0.73333 -7.22305 1.99802 4.84778
0.00204 0.95718 0.00101 177.49334 0 -5.05891 5.83954 5.11737 -4.67002 -20.70276 7.26561 4.20162 16.56243 -22.02584 17.52512 10.75334 82.57591 -1.47544 -3.85931 17.26367 3.93258 -13.63601 8.76423 -81.8333 -3.34419 3.06498 -4.23613 7.41566 -3.00931 -7.07042 -12.28773 -1.57759 -7.7518 -6.61341 5.40898 18.96108 -0.66107 -7.44756 1.94028 4.54033
0.00254 0.9575 0.00105 177.5302 0 -5.08722 5.74407 5.11314 -4.73177 -20.61665 7.36799 4.23895 16.56952 -22.16382 17.52244 10.82807 82.56074 -1.51215 -3.91557 17.1329 3.83508 -13.4639 8.70642 -81.8845 -3.32841 3.03688 -4.21054 7.44361 -2.97031 -7.04136 -12.44308 -1.54822 -7.78649 -6.607 5.42978 19.27976 -0.58024 -7.68673 1.8746 4.19429
0.00353 0.95778 0.00112 177.56966 0 -5.10842 5.5598 5.10269 -4.80119 -20.39691 7.50352 4.2757 16.50675 -22.3269 17.58353 10.91422 82.55232 -1.54693 -3.98461 16.92441 3.71328 -13.35752 8.67756 -81.91306 -3.31856 3.0298 -4.15356 7.46504 -2.93918 -7.02879 -12.5808 -1.52571 -7.82605 -6.56838 5.44649 19.53078 -0.51483 -7.89789 1.82244 3.90862
0.00574 0.95796 0.00127 177.61158 0 -5.10994 5.15405 5.07548 -4.88491 -19.83502 7.72205 4.31153 16.25894 -22.55131 17.7984 11.02444 82.56366 -1.57185 -4.08383 16.51453 3.53115 -13.42704 8.72212 -81.87007 -3.32329 3.07609 -4.01862 7.46815 -2.92673 -7.05894 -12.66559 -1.52399 -7.87718 -6.44986 5.45105 19.5757 -0.4907 -8.02774 1.81173 3.81263
0.00844 0.95811 0.00144 177.65548 0 -5.10408 4.65646 5.04209 -4.97558 -19.1357 7.97337 4.34557 15.93939 -22.80003 18.07901 11.14548 82.58224 -1.5949 -4.19537 16.02464 3.32543 -13.56085 8.79575 -81.80456 -3.3339 3.14367 -3.85085 7.46438 -2.92304 -7.10688 -12.73174 -1.52915 -7.93272 -6.29765 5.45135 19.54998 -0.48367 -8.1288 1.815 3.78052
